<?xml version="1.0" encoding="UTF-8" standalone="no"?>
<!DOCTYPE svg PUBLIC "-//W3C//DTD SVG 1.1//EN" "http://www.w3.org/Graphics/SVG/1.1/DTD/svg11.dtd">
<!-- Created with Vectornator (http://vectornator.io/) -->
<svg height="100%" stroke-miterlimit="10" style="fill-rule:nonzero;clip-rule:evenodd;stroke-linecap:round;stroke-linejoin:round;" version="1.1" viewBox="0 0 1024 1024" width="100%" xml:space="preserve" xmlns="http://www.w3.org/2000/svg" xmlns:vectornator="http://vectornator.io" xmlns:xlink="http://www.w3.org/1999/xlink">
<defs/>
<g id="Layer" transform="translate(512, 512) scale(2.768) translate(-230.701, -232) translate(230.701, 232) scale(0.95) translate(-230.701, -232)">
<path d="M143.037 153.443C146.554 144.09 239.477 50 248.365 50C257.253 50 318.863 181.261 318.863 186.399C318.863 191.537 294.32 314.555 288.973 341.468C283.619 349.37 231.54 414 224.5 414C217.46 414 160.866 339.727 159.136 333.181C155.638 266.494 139.521 162.795 143.037 153.443Z" fill="none" opacity="1" stroke="#01cbf1" stroke-linecap="round" stroke-linejoin="round" stroke-width="10"/>
<path d="M224.5 164.338C230.701 170.523 277.164 219.005 277.164 219.005C277.164 219.005 287.883 204.908 294.054 193.633C304.23 189.294 313.666 186.471 318.863 186.654" fill="none" opacity="1" stroke="#01cbf1" stroke-linecap="round" stroke-linejoin="round" stroke-width="10"/>
<path d="M248.626 50C241.938 64.3018 224.458 143.259 224.458 165.065C212.859 171.413 185.182 192.459 177.485 198.132C166.81 192.68 142.82 158.294 142.82 154.213" fill="none" opacity="1" stroke="#01cbf1" stroke-linecap="round" stroke-linejoin="round" stroke-width="10"/>
<path d="M248.668 50C248.668 50 288.41 185.21 294.054 191.671" fill="none" opacity="1" stroke="#01cbf1" stroke-linecap="round" stroke-linejoin="round" stroke-width="10"/>
<path d="M177.369 198.132C177.369 198.132 179.302 332.981 182.252 338.884C184.961 344.306 221.424 381.41 221.424 381.41C221.424 381.41 251.406 348.519 254.026 343.701C256.646 338.884 271.373 227.878 277.207 218.063" fill="none" opacity="1" stroke="#01cbf1" stroke-linecap="round" stroke-linejoin="round" stroke-width="10"/>
<path d="M287.883 342.437C284.657 344.98 240.933 363.056 221.527 381.206" fill="none" opacity="1" stroke="#01cbf1" stroke-linecap="round" stroke-linejoin="round" stroke-width="10"/>
<path d="M159.235 331.408C159.235 331.408 174.137 331.33 183.623 340.991" fill="none" opacity="1" stroke="#01cbf1" stroke-linecap="round" stroke-linejoin="round" stroke-width="10"/>
</g>
<style>@media (prefers-color-scheme: light) { :root { filter: none; } }
@media (prefers-color-scheme: dark) { :root { filter: none; } }
</style>
</svg>