<?xml version="1.0" encoding="UTF-8" standalone="no"?>
<!-- Created with Inkscape (http://www.inkscape.org/) -->

<svg
   width="940.23798mm"
   height="259.70303mm"
   viewBox="0 0 940.2378 259.70299"
   version="1.1"
   id="svg1"
   xmlns="http://www.w3.org/2000/svg"
   xmlns:svg="http://www.w3.org/2000/svg">
  <defs
     id="defs1">
    <linearGradient
       id="swatch194">
      <stop
         style="stop-color:#4d4d4d;stop-opacity:1;"
         offset="0"
         id="stop194" />
    </linearGradient>
    <linearGradient
       id="swatch39">
      <stop
         style="stop-color:#999999;stop-opacity:1;"
         offset="0"
         id="stop39" />
    </linearGradient>
  </defs>
  <g
     id="layer1"
     transform="translate(-106.07445,-87.677157)">
    <g
       id="g1"
       transform="matrix(0.25222225,0,0,0.25222225,142.37667,88.683763)">
      <path
         style="fill:#6395ff;fill-opacity:1;stroke:none;stroke-width:6;stroke-linecap:round;stroke-linejoin:round;stroke-dasharray:none;stroke-opacity:1;paint-order:fill markers stroke"
         id="path65-5-5-5-5-5-7-5"
         d="m 196.40239,23.285532 c -0.54602,8.293741 -12.43549,6.934573 -14.77155,14.911232 -1.80051,6.147936 9.8144,9.871544 6.00441,15.021586 -4.94327,6.681938 -14.21051,-0.889398 -20.48824,4.558023 -4.8385,4.198549 2.91945,13.610539 -3.07004,15.883196 -7.77108,2.948667 -11.4738,-8.430992 -19.70006,-7.242327 -6.34031,0.916152 -4.90242,13.028284 -11.16979,11.702004 -8.13162,-1.720786 -5.09423,-13.295805 -12.65725,-16.74329 -5.82912,-2.657116 -11.1678,8.309642 -15.7232,3.80551 C 98.916245,59.337564 107.72938,51.24217 103.23082,44.253089 99.763598,38.86632 89.343337,45.205836 87.946205,38.953881 86.133492,30.842262 97.924274,28.796724 97.918427,20.48503 97.913921,14.078869 85.720439,13.77839 87.925159,7.7635646 90.785679,-0.04039043 101.81062,4.613372 106.29934,-2.3820311 c 3.45964,-5.3916419 -6.635717,-12.2367149 -1.52913,-16.1047469 6.62556,-5.01859 13.38432,4.856936 20.94247,1.398815 5.82538,-2.665315 1.03335,-13.881719 7.4205,-14.374885 8.28703,-0.639859 8.63374,11.322021 16.86167,12.499111 6.34159,0.907231 8.37433,-11.119376 14.01417,-8.081098 7.31742,3.942023 1.14202,14.192444 7.42741,19.6310273 4.8444,4.1917375 13.05652,-4.8267093 16.15844,0.7783797 4.02459,7.27234109 -6.71229,12.5568672 -4.365,20.530232 1.80914,6.145397 13.59336,2.998403 13.17252,9.390728 z"
         transform="matrix(7.5995429,0,0,7.5995429,-560.09045,326.96861)" />
      <text
         xml:space="preserve"
         style="font-weight:bold;font-size:527.974px;font-family:'Chalkboard SE';-inkscape-font-specification:'Chalkboard SE Bold';text-align:start;writing-mode:lr-tb;direction:ltr;text-anchor:start;fill:#ffffff;fill-opacity:1;stroke:#999999;stroke-width:0;stroke-linecap:round;stroke-linejoin:round;stroke-dasharray:none;stroke-opacity:1;paint-order:markers fill stroke"
         x="306.01437"
         y="668.91577"
         id="text7-7-2-7-5-0-9-1"><tspan
           id="tspan7-5-2-2-5-2-7-0"
           style="fill:#ffffff;fill-opacity:1;stroke:#999999;stroke-width:0;stroke-opacity:1"
           x="306.01437"
           y="668.91577">#</tspan></text>
    </g>
    <path
       d="m 1382.5082,590.27527 h 36.5334 v 15.20002 q 5.3333,-8.00001 15.2,-13.06668 9.8667,-5.06668 22.9334,-5.06668 12,0 21.6,4.26668 9.6,4.26667 16.2667,12.00001 6.6667,7.46668 10.1333,18.13336 3.4667,10.66668 3.4667,23.73336 v 78.13343 h -36.5334 v -72.00009 q 0,-14.40002 -6.1333,-22.6667 -5.8667,-8.26667 -17.3334,-8.26667 -12.8,0 -21.3333,9.33334 -8.2667,9.33335 -8.2667,28.53337 v 65.06675 h -36.5334 z m 177.8672,-21.86669 q -4.8,0 -9.0667,-1.86667 -4,-1.86667 -7.2,-4.80001 -3.2,-3.2 -5.0667,-7.46667 -1.8667,-4.26668 -1.8667,-9.06668 0,-4.80001 1.8667,-9.06668 1.8667,-4.26667 5.0667,-7.20001 3.2,-3.2 7.2,-5.06667 4.2667,-1.86667 9.0667,-1.86667 9.8666,0 16.5333,6.93334 6.9334,6.66668 6.9334,16.26669 0,9.60001 -6.9334,16.53335 -6.6667,6.66668 -16.5333,6.66668 z m -18.1334,21.86669 h 36.5334 v 133.3335 h -36.5334 z m 239.7334,62.13341 q 0,-14.93335 -5.0667,-23.20003 -4.8,-8.53334 -15.7333,-8.53334 -11.7334,0 -18.9334,8.80001 -7.2,8.80001 -7.7333,27.20003 v 66.93342 h -36.5334 v -71.20009 q 0,-14.93335 -5.0667,-23.20003 -4.8,-8.53334 -15.7333,-8.53334 -12.0001,0 -19.4667,9.33334 -7.2,9.33335 -7.2,28.53337 v 65.06675 h -36.5334 v -133.3335 h 36.5334 v 15.20002 q 5.3333,-7.73334 14.1333,-12.80002 9.0667,-5.33334 21.3334,-5.33334 14.4,0 24.8,6.66668 10.4,6.40001 16.5333,17.86669 3.2,-6.13334 7.7334,-10.66668 4.8,-4.53334 10.4,-7.46668 5.6,-3.2 11.4667,-4.8 6.1333,-1.60001 11.7333,-1.60001 24.0001,0 36.8001,16.00002 13.0667,15.73336 13.0667,42.93339 v 77.33343 h -36.5334 z m 145.3334,74.13342 q -13.8667,0 -24,-5.6 -10.1334,-5.86668 -14.6667,-12.26668 v 14.93335 h -36.5334 V 523.60852 h 36.5334 v 81.6001 q 4.5333,-6.40001 14.6667,-12.00001 10.1333,-5.86668 24,-5.86668 13.3334,0 24.8,5.60001 11.4667,5.60001 19.7334,15.20002 8.5333,9.33334 13.3333,22.13336 4.8001,12.53335 4.8001,26.6667 0,14.13335 -4.8001,26.93336 -4.8,12.53335 -13.3333,22.13337 -8.2667,9.33334 -19.7334,14.93335 -11.4666,5.6 -24.8,5.6 z m -8,-33.33337 q 15.2,0 24.2667,-10.13335 9.3333,-10.40001 9.3333,-26.13336 0,-15.73335 -9.3333,-25.8667 -9.0667,-10.40001 -24.2667,-10.40001 -15.2,0 -24.5334,10.40001 -9.0666,10.13335 -9.0666,25.8667 0,15.73335 9.0666,26.13336 9.3334,10.13335 24.5334,10.13335 z m 151.467,33.33337 q -13.3334,0 -24.8001,-5.6 -11.4666,-5.60001 -20,-14.93335 -8.2667,-9.60002 -13.0667,-22.13337 -4.8,-12.80001 -4.8,-26.93336 0,-14.13335 4.8,-26.6667 4.8,-12.80002 13.0667,-22.13336 8.5334,-9.60001 20,-15.20002 11.4667,-5.60001 24.8001,-5.60001 13.8667,0 23.7333,5.86668 10.1334,5.6 14.6667,12.00001 v -14.93335 h 36.5334 v 133.3335 h -36.5334 v -14.93335 q -4.5333,6.4 -14.6667,12.26668 -9.8666,5.6 -23.7333,5.6 z m 7.7333,-33.33337 q 15.2,0 24.2667,-10.13335 9.3334,-10.40001 9.3334,-26.13336 0,-15.73335 -9.3334,-25.8667 -9.0667,-10.40001 -24.2667,-10.40001 -15.2,0 -24.5333,10.40001 -9.0667,10.13335 -9.0667,25.8667 0,15.73335 9.0667,26.13336 9.3333,10.13335 24.5333,10.13335 z m 102.667,-169.60021 h 36.5333 v 200.00025 h -36.5333 z m 82.6665,255.73365 28.0001,-63.20008 -56.0001,-125.86682 h 40 l 35.7334,86.40011 35.4667,-86.40011 h 40.2668 l -83.7335,189.0669 z m 190.1333,-52.80007 q -12.8,0 -23.7333,-3.46667 -10.9334,-3.46667 -18.9334,-9.33334 -7.7333,-6.13334 -12.5333,-14.40002 -4.5334,-8.26668 -5.0667,-18.13336 h 38.1334 q 1.0666,8.80002 7.7333,13.06669 6.6667,4.26667 15.4667,4.26667 8.5333,0 12.8,-2.93334 4.5334,-2.93333 4.5334,-7.73334 0,-5.33334 -4.0001,-8.26668 -4,-2.93333 -12.8,-5.06667 l -25.0667,-6.40001 q -17.6,-4.53334 -25.8667,-15.46668 -8,-11.20002 -8,-25.8667 0,-8.53335 3.7334,-15.73335 3.7333,-7.46668 10.6666,-12.53335 6.9334,-5.33334 16.8001,-8.26668 9.8666,-2.93334 22.4,-2.93334 10.9333,0 20.2667,2.93334 9.6,2.66667 16.8,8.26668 7.2,5.33334 11.4667,13.33335 4.5333,7.73334 5.3333,17.60002 h -36.8 q -1.3334,-7.73334 -6.4,-10.66668 -5.0667,-2.93334 -11.2,-2.93334 -6.9334,0 -11.4667,2.66667 -4.2667,2.66667 -4.2667,7.46668 0,5.6 4.5333,8.26667 4.5334,2.66667 10.6667,4.00001 l 23.4667,6.40001 q 19.7334,5.06667 28.2667,15.46668 8.8,10.13335 8.8,25.8667 0,9.33335 -4.2666,17.06669 -4,7.46667 -11.4667,12.80001 -7.4667,5.06668 -17.8667,7.73335 -10.1334,2.93333 -22.1334,2.93333 z m 143.4669,-1.33333 q -10.6667,0 -20.0001,-2.93334 -9.0666,-2.93334 -16,-8.80001 -6.9333,-6.13334 -10.9333,-15.20002 -4,-9.06668 -4,-21.33336 v -54.66673 h -26.9334 v -32.00004 h 26.9334 v -37.06671 h 36.5333 v 37.06671 h 37.6001 v 32.00004 h -37.6001 v 47.46672 q 0,12.26669 5.3334,17.60003 5.3333,5.06667 17.3333,5.06667 8.5334,0 14.9334,-2.4 v 32.2667 q -4.5334,1.33334 -10.1334,2.13334 -5.3333,0.8 -13.0666,0.8 z"
       id="text1"
       style="font-weight:600;font-size:266.667px;font-family:'Euclid Circular A';-inkscape-font-specification:'Euclid Circular A, Semi-Bold';white-space:pre;fill:#241d71;stroke-width:22.9493;stroke-linecap:round;stroke-linejoin:round;paint-order:fill markers stroke"
       transform="matrix(0.46320516,0,0,0.46320516,-237.3201,-85.864407)"
       aria-label="nimbalyst" />
  </g>
</svg>
